<?xml version="1.0" encoding="UTF-8"?>
<svg id="Layer_1" xmlns="http://www.w3.org/2000/svg" version="1.1" viewBox="0 0 30.29 37.99">
  <!-- Generator: Adobe Illustrator 30.2.0, SVG Export Plug-In . SVG Version: 2.1.1 Build 105)  -->
  <defs>
    <style>
      .st0 {
        fill: #2e554a;
      }
    </style>
  </defs>
  <path class="st0" d="M20.32,25.77h-.3c-.03-1.11-.21-2.32-.82-3.52-.83-1.64-2.2-2.82-4.06-3.52.06-.23.12-.46.17-.68l.03-.14c.22-.96.38-2.17-.37-3.01-.76-.85-1.99-.83-3.1-.7-.88.1-1.52.44-1.9.99-.37.54-.45,1.21-.25,1.99.13.5.22,1,.32,1.5h0c-.32.14-.65.28-.96.46-2.53,1.41-3.85,3.64-3.98,6.62h-.23c-.59,0-1.06.48-1.06,1.06s.48,1.06,1.06,1.06h15.44c.59,0,1.06-.48,1.06-1.06s-.48-1.06-1.06-1.06ZM11.79,16.66c-.04-.14-.04-.22-.05-.25.05-.02.16-.07.39-.09.33-.04.58-.05.77-.05.36,0,.48.04.48.03.02.04.09.3-.11,1.13l-.03.14c-.05.21-.1.42-.15.62-.32-.03-.64-.03-.97,0-.1-.51-.2-1.03-.33-1.53ZM10.13,21.01c1.11-.62,2.22-.85,3.14-.64,1.98.45,3.3,1.38,4.04,2.84.42.83.56,1.7.59,2.56H7.23c.11-2.19,1.04-3.72,2.9-4.76Z"/>
  <path class="st0" d="M29.22,8.7h-6.57v-3.47s0-.02,0-.03c0-.12-.03-.24-.07-.36-.01-.03-.03-.05-.04-.08-.02-.05-.04-.1-.08-.15L19.5.45c-.2-.28-.52-.45-.87-.45h-9.8c-.36,0-.7.18-.89.49l-2.69,4.17s-.03.08-.05.11c-.01.03-.03.06-.04.09-.04.12-.07.24-.07.36,0,0,0,.01,0,.02v3.47H1.06c-.59,0-1.06.48-1.06,1.06v27.16c0,.59.48,1.06,1.06,1.06h28.16c.59,0,1.06-.48,1.06-1.06V9.77c0-.59-.48-1.06-1.06-1.06ZM18.73,6.29h1.8v2.32h-1.8v-2.32ZM9.42,2.13h8.67l1.45,2.04h-11.44l1.32-2.04ZM7.21,6.29h1.8v2.32h-1.8v-2.32ZM11.13,6.29h5.47v2.41h-5.47v-2.41ZM2.13,10.83h20.92v25.03H2.13V10.83ZM28.16,35.86h-2.99V10.83h2.99v25.03Z"/>
</svg>