<svg width="100" height="100" viewBox="0 0 100 100" fill="none" xmlns="http://www.w3.org/2000/svg">
<path d="M50.0001 52.9938C37.2595 52.9938 12.4595 59.9625 12.4595 72.7406C12.4595 78.0344 15.6876 82.8344 20.8876 85.275C27.6907 88.4688 38.6845 90.3531 50.047 90.3531C60.372 90.3531 71.0032 88.7969 79.072 85.2625C84.2157 83.0063 87.5407 78.0937 87.5407 72.7437C87.5407 59.9656 62.7407 52.9938 50.0001 52.9938ZM50.0001 9.375C45.0273 9.375 40.2582 11.3504 36.7418 14.8667C33.2255 18.3831 31.2501 23.1522 31.2501 28.125C31.2501 33.0978 33.2255 37.8669 36.7418 41.3833C40.2582 44.8996 45.0273 46.875 50.0001 46.875C54.9729 46.875 59.742 44.8996 63.2584 41.3833C66.7747 37.8669 68.7501 33.0978 68.7501 28.125C68.7501 23.1522 66.7747 18.3831 63.2584 14.8667C59.742 11.3504 54.9729 9.375 50.0001 9.375Z" fill="currentColor"/>
</svg>
