<svg width="100" height="100" viewBox="0 0 100 100" fill="none" xmlns="http://www.w3.org/2000/svg">
<path d="M43.3333 10C24.9633 10 10 24.9633 10 43.3333C10 61.7033 24.9633 76.6667 43.3333 76.6667C51.3217 76.6667 58.6579 73.83 64.4076 69.1211L84.3099 89.0234C84.617 89.3434 84.9849 89.5988 85.392 89.7747C85.7991 89.9507 86.2372 90.0436 86.6807 90.0481C87.1242 90.0527 87.5641 89.9686 87.9747 89.801C88.3853 89.6334 88.7583 89.3855 89.0719 89.0719C89.3855 88.7583 89.6334 88.3853 89.801 87.9747C89.9686 87.5641 90.0527 87.1242 90.0481 86.6807C90.0436 86.2372 89.9507 85.7991 89.7747 85.392C89.5988 84.9849 89.3434 84.617 89.0234 84.3099L69.1211 64.4076C73.83 58.6579 76.6667 51.3217 76.6667 43.3333C76.6667 24.9633 61.7033 10 43.3333 10ZM43.3333 16.6667C58.1004 16.6667 70 28.5663 70 43.3333C70 58.1004 58.1004 70 43.3333 70C28.5663 70 16.6667 58.1004 16.6667 43.3333C16.6667 28.5663 28.5663 16.6667 43.3333 16.6667Z" fill="currentColor"/>
</svg>
