<svg width="100" height="100" viewBox="0 0 100 100" fill="none" xmlns="http://www.w3.org/2000/svg">
<g clip-path="url(#clip0_907_24)">
<path d="M24.6094 0C23.4442 0.00103434 22.327 0.46436 21.5031 1.28827C20.6792 2.11218 20.2159 3.22935 20.2148 4.39453V7.32422C20.2148 7.71272 20.3692 8.08531 20.6439 8.36002C20.9186 8.63473 21.2912 8.78906 21.6797 8.78906H22.168V17.6231L16.5546 26.0429C16.3943 26.2836 16.3087 26.5663 16.3086 26.8555V32.6172H9.78507C9.39657 32.6172 9.02398 32.7715 8.74927 33.0462C8.47456 33.3209 8.32023 33.6935 8.32023 34.082V75.0664C8.32111 76.6602 7.73827 78.1992 6.68182 79.3926L2.37311 84.2754C1.16818 85.6407 0.382746 87.3247 0.111055 89.1252C-0.160637 90.9258 0.0929521 92.7665 0.841396 94.4265C1.58984 96.0866 2.80135 97.4954 4.33057 98.484C5.8598 99.4726 7.64178 99.999 9.46273 100H90.5373C92.3593 100 94.1426 99.4739 95.6729 98.485C97.2032 97.4961 98.4155 96.0865 99.1642 94.4254C99.9128 92.7642 100.166 90.9223 99.8933 89.1208C99.6206 87.3193 98.8336 85.6348 97.6269 84.2697L93.3182 79.3869C92.2617 78.1935 91.6789 76.6545 91.6798 75.0607V34.082C91.6798 33.6935 91.5254 33.3209 91.2507 33.0462C90.976 32.7715 90.6034 32.6172 90.2149 32.6172H80.2734C82.719 29.3642 83.9211 25.3441 83.6628 21.2826C83.4046 17.2211 81.7029 13.3857 78.865 10.4687C78.9061 10.4296 78.9472 10.3926 78.9883 10.3516C80.1436 9.19337 80.9768 7.75384 81.4056 6.17514C81.8345 4.59644 81.8441 2.93318 81.4335 1.34964C81.3681 1.09824 81.2368 0.868843 81.0531 0.685162C80.8694 0.50148 80.64 0.370169 80.3886 0.304794C78.2474 -0.253674 75.9776 -0.0367111 73.9809 0.917293C71.9843 1.8713 70.3894 3.50084 69.4786 5.51758C66.0501 4.93504 62.5254 5.41199 59.375 6.88477C58.3698 4.49557 56.569 2.52765 54.2782 1.31481C51.9874 0.101972 49.3476 -0.281107 46.8066 0.230552C44.2655 0.742212 41.9797 2.11711 40.3368 4.12202C38.6939 6.12693 37.7952 8.63842 37.793 11.2305V22.0177L34.8633 17.6231V8.78906H35.3516C35.7401 8.78906 36.1126 8.63473 36.3874 8.36002C36.6621 8.08531 36.8164 7.71272 36.8164 7.32422V4.39453C36.8154 3.22935 36.352 2.11218 35.5281 1.28827C34.7042 0.46436 33.5871 0.00103434 32.4219 0L24.6094 0ZM24.6094 2.92969H32.4219C32.8104 2.92969 33.183 3.08402 33.4577 3.35873C33.7324 3.63344 33.8867 4.00603 33.8867 4.39453V5.85938H23.1445V4.39453C23.1445 4.00603 23.2989 3.63344 23.5736 3.35873C23.8483 3.08402 24.2209 2.92969 24.6094 2.92969ZM49.0234 2.92969C51.2241 2.93227 53.334 3.80765 54.8901 5.36378C56.4462 6.91992 57.3216 9.02976 57.3242 11.2305V32.6172H40.7226V11.2305C40.7252 9.02976 41.6006 6.91992 43.1567 5.36378C44.7129 3.80765 46.8227 2.93227 49.0234 2.92969ZM78.1364 2.93236C78.3466 2.93563 78.5566 2.94912 78.7655 2.97279C78.8747 3.94018 78.7646 4.91973 78.4433 5.83874C78.1221 6.75774 77.5981 7.5926 76.91 8.28133C76.8228 8.36987 76.7309 8.45587 76.6346 8.5392C75.3282 7.58626 73.8925 6.82467 72.3709 6.27747C72.6635 5.74604 73.029 5.25823 73.4569 4.82826C74.0705 4.21529 74.8007 3.73166 75.6045 3.406C76.4083 3.08034 77.2693 2.91928 78.1364 2.93236ZM66.6016 8.20312C69.4323 8.20158 72.1986 9.04899 74.5427 10.6359C76.8869 12.2227 78.7014 14.4761 79.7516 17.1049C80.8018 19.7337 81.0396 22.617 80.4342 25.3823C79.8287 28.1476 78.4079 30.6678 76.3554 32.6172H60.2539V11.2305C60.2524 10.7366 60.2191 10.2434 60.1543 9.7538C62.1501 8.73306 64.3599 8.20155 66.6016 8.20312ZM25.0976 8.78906H31.9336V18.0664C31.9337 18.3556 32.0193 18.6383 32.1796 18.8789L37.793 27.2987V32.6172H19.2383V27.2987L24.8516 18.8789C25.0119 18.6383 25.0975 18.3556 25.0976 18.0664V8.78906ZM69.0964 11.4735C68.7459 11.4859 68.4116 11.6235 68.154 11.8615C67.8965 12.0995 67.7328 12.4219 67.6928 12.7703C67.6527 13.1186 67.739 13.4698 67.9359 13.76C68.1327 14.0502 68.4271 14.2601 68.7656 14.3517L68.7714 14.3497C70.5913 14.8501 72.1883 15.9515 73.3028 17.4747C73.5323 17.7884 73.877 17.998 74.2611 18.0575C74.6452 18.117 75.0371 18.0214 75.3508 17.7919C75.6644 17.5624 75.874 17.2177 75.9335 16.8337C75.993 16.4496 75.8975 16.0577 75.6679 15.744C74.1579 13.6844 71.9948 12.1967 69.5312 11.5234C69.3896 11.4851 69.243 11.4682 69.0964 11.4735ZM45.1172 13.0859C44.7287 13.0859 44.3561 13.2403 44.0814 13.515C43.8067 13.7897 43.6523 14.1623 43.6523 14.5508C43.6523 14.9393 43.8067 15.3119 44.0814 15.5866C44.3561 15.8613 44.7287 16.0156 45.1172 16.0156H52.9297C53.3182 16.0156 53.6908 15.8613 53.9655 15.5866C54.2402 15.3119 54.3945 14.9393 54.3945 14.5508C54.3945 14.1623 54.2402 13.7897 53.9655 13.515C53.6908 13.2403 53.3182 13.0859 52.9297 13.0859H45.1172ZM45.1172 19.9219C44.7287 19.9219 44.3561 20.0762 44.0814 20.3509C43.8067 20.6256 43.6523 20.9982 43.6523 21.3867C43.6523 21.7752 43.8067 22.1478 44.0814 22.4225C44.3561 22.6972 44.7287 22.8516 45.1172 22.8516H52.9297C53.3182 22.8516 53.6908 22.6972 53.9655 22.4225C54.2402 22.1478 54.3945 21.7752 54.3945 21.3867C54.3945 20.9982 54.2402 20.6256 53.9655 20.3509C53.6908 20.0762 53.3182 19.9219 52.9297 19.9219H45.1172ZM45.1172 26.7578C44.7287 26.7578 44.3561 26.9121 44.0814 27.1869C43.8067 27.4616 43.6523 27.8342 43.6523 28.2227C43.6523 28.6112 43.8067 28.9837 44.0814 29.2585C44.3561 29.5332 44.7287 29.6875 45.1172 29.6875H52.9297C53.3182 29.6875 53.6908 29.5332 53.9655 29.2585C54.2402 28.9837 54.3945 28.6112 54.3945 28.2227C54.3945 27.8342 54.2402 27.4616 53.9655 27.1869C53.6908 26.9121 53.3182 26.7578 52.9297 26.7578H45.1172ZM11.2499 35.5469H88.7501V75.0664C88.7504 75.9016 88.8613 76.733 89.08 77.5391H10.9199C11.1386 76.733 11.2496 75.9016 11.2499 75.0664V35.5469ZM37.3047 43.6523C35.6212 43.6523 34.0066 44.3211 32.8162 45.5115C31.6258 46.7019 30.957 48.3165 30.957 50C30.957 51.6835 31.6258 53.2981 32.8162 54.4885C34.0066 55.6789 35.6212 56.3477 37.3047 56.3477H62.6953C64.3788 56.3477 65.9934 55.6789 67.1838 54.4885C68.3742 53.2981 69.043 51.6835 69.043 50C69.043 48.3165 68.3742 46.7019 67.1838 45.5115C65.9934 44.3211 64.3788 43.6523 62.6953 43.6523H37.3047ZM37.3047 46.582H62.6953C63.6018 46.582 64.4712 46.9421 65.1122 47.5831C65.7532 48.2241 66.1133 49.0935 66.1133 50C66.1133 50.9065 65.7532 51.7759 65.1122 52.4169C64.4712 53.0579 63.6018 53.418 62.6953 53.418H37.3047C36.3982 53.418 35.5288 53.0579 34.8878 52.4169C34.2468 51.7759 33.8867 50.9065 33.8867 50C33.8867 49.0935 34.2468 48.2241 34.8878 47.5831C35.5288 46.9421 36.3982 46.582 37.3047 46.582ZM9.55276 80.4688H90.4472C90.6551 80.7703 90.8809 81.0592 91.1232 81.3339L95.4315 86.2167C96.2625 87.1594 96.804 88.3217 96.9912 89.5643C97.1783 90.8069 97.003 92.0772 96.4865 93.2227C95.9699 94.3683 95.1339 95.3406 94.0787 96.023C93.0235 96.7054 91.7939 97.0691 90.5373 97.0703H9.46273C8.20465 97.0704 6.97331 96.7072 5.91664 96.0244C4.85998 95.3415 4.02293 94.3682 3.50607 93.2212C2.98921 92.0742 2.81452 90.8023 3.00298 89.5584C3.19144 88.3145 3.73504 87.1515 4.56847 86.2091L8.87679 81.3263C9.11888 81.0541 9.3446 80.7677 9.55276 80.4688Z" fill="currentColor"/>
</g>
<defs>
<clipPath id="clip0_907_24">
<rect width="100" height="100" fill="white"/>
</clipPath>
</defs>
</svg>
