<?xml version="1.0" encoding="UTF-8"?>
<!DOCTYPE svg PUBLIC "-//W3C//DTD SVG 1.1//EN" "http://www.w3.org/Graphics/SVG/1.1/DTD/svg11.dtd">
<svg xmlns="http://www.w3.org/2000/svg" version="1.1" width="512px" height="512px" style="shape-rendering:geometricPrecision; text-rendering:geometricPrecision; image-rendering:optimizeQuality; fill-rule:evenodd; clip-rule:evenodd" xmlns:xlink="http://www.w3.org/1999/xlink">
<g><path style="opacity:0.991" fill="#1e5649" d="M 511.5,77.5 C 511.5,82.1667 511.5,86.8333 511.5,91.5C 508.94,99.2198 503.607,104.053 495.5,106C 475.167,106.333 454.833,106.667 434.5,107C 419.26,145.464 390.927,162.797 349.5,159C 322.254,153.414 303.087,137.914 292,112.5C 291.187,110.564 290.687,108.564 290.5,106.5C 198.833,106.667 107.166,106.5 15.5,106C 7.39321,104.053 2.05987,99.2198 -0.5,91.5C -0.5,86.8333 -0.5,82.1667 -0.5,77.5C 2.31434,71.1873 6.98101,66.6873 13.5,64C 105.833,63.5 198.166,63.3333 290.5,63.5C 302.102,29.2591 326.102,11.2591 362.5,9.5C 398.041,11.882 422.041,29.7153 434.5,63C 455.5,63.3333 476.5,63.6667 497.5,64C 504.019,66.6873 508.686,71.1873 511.5,77.5 Z"/></g>
<g><path style="opacity:1" fill="#c0dbf0" d="M 356.5,52.5 C 381.194,52.6943 393.694,65.0277 394,89.5C 388.647,109.837 375.481,118.67 354.5,116C 336.043,109.265 328.21,96.0988 331,76.5C 335.192,63.8052 343.692,55.8052 356.5,52.5 Z"/></g>
<g><path style="opacity:0.98" fill="#1e5649" d="M 511.5,248.5 C 511.5,253.167 511.5,257.833 511.5,262.5C 508.165,269.997 502.498,274.831 494.5,277C 403.165,277.167 311.832,277.667 220.5,278.5C 207.978,311.684 183.978,329.018 148.5,330.5C 117.903,329.295 95.4028,315.295 81,288.5C 79.3262,284.979 78.1596,281.313 77.5,277.5C 57.1639,277.667 36.8306,277.5 16.5,277C 8.50176,274.831 2.83509,269.997 -0.5,262.5C -0.5,257.833 -0.5,253.167 -0.5,248.5C 2.83509,241.003 8.50176,236.169 16.5,234C 36.5,233.667 56.5,233.333 76.5,233C 89.2112,200.134 113.211,182.634 148.5,180.5C 183.978,181.982 207.978,199.316 220.5,232.5C 311.832,233.333 403.165,233.833 494.5,234C 502.498,236.169 508.165,241.003 511.5,248.5 Z"/></g>
<g><path style="opacity:1" fill="#c0dbf0" d="M 141.5,223.5 C 160.659,221.513 173.492,229.513 180,247.5C 182.841,267.631 174.674,280.798 155.5,287C 134.618,289.119 121.784,279.953 117,259.5C 116.457,241.59 124.624,229.59 141.5,223.5 Z"/></g>
<g><path style="opacity:0.991" fill="#1e5649" d="M 511.5,419.5 C 511.5,424.167 511.5,428.833 511.5,433.5C 508.593,440.237 503.593,444.737 496.5,447C 475.833,447.333 455.167,447.667 434.5,448C 422.044,481.28 398.044,499.114 362.5,501.5C 326.102,499.741 302.102,481.741 290.5,447.5C 198.499,447.667 106.499,447.5 14.5,447C 7.40736,444.737 2.40736,440.237 -0.5,433.5C -0.5,428.833 -0.5,424.167 -0.5,419.5C 2.05987,411.78 7.39321,406.947 15.5,405C 107.166,404.5 198.833,404.333 290.5,404.5C 297.473,381.41 312.14,365.243 334.5,356C 373.147,344.214 403.98,354.714 427,387.5C 429.891,392.849 432.391,398.349 434.5,404C 454.833,404.333 475.167,404.667 495.5,405C 503.607,406.947 508.94,411.78 511.5,419.5 Z"/></g>
<g><path style="opacity:1" fill="#c0dbf0" d="M 354.5,394.5 C 380.325,392.831 393.492,404.831 394,430.5C 388.18,451.829 374.346,460.662 352.5,457C 332.041,447.302 325.874,431.802 334,410.5C 339.013,402.633 345.846,397.3 354.5,394.5 Z"/></g>
</svg>
